<?xml version="1.0" encoding="utf-8"?>
<!-- Generator: Adobe Illustrator 24.2.1, SVG Export Plug-In . SVG Version: 6.00 Build 0)  -->
<svg version="1.1" xmlns="http://www.w3.org/2000/svg" xmlns:xlink="http://www.w3.org/1999/xlink" x="0px" y="0px"
	 viewBox="0 0 1145 211" style="enable-background:new 0 0 1145 211" xml:space="preserve">
<style type="text/css">
	.st0{display:none;fill:#0B0A08;}
	.st1{fill:#FFFFFF;}
	.st2{display:none;}
</style>
<g id="Your_design">
	<rect id="BG" y="-9.5" class="st0" width="1145" height="232"/>
	<g>
		<path class="st1" d="M117.24,24.77l-0.01,38.31l-8.41,0l-0.25-2.87c-0.95-10.87-1.85-17.39-7.88-22.93
			c-3.02-2.87-7.13-4.2-12.47-4.2l-20.41,0l0,111.46c-0.01,2.26,0.67,4.1,1.9,5.33c1.23,1.23,3.03,1.85,5.29,1.85l20,0l0.02,8.41
			l-69.83,0l-0.02-8.41l20.2,0c4.51,0,7.06-2.56,7.08-6.97L52.44,33.08l-20.51,0c-17.64,0-18.89,14.97-20.27,30.86l-0.25,2.97H3
			l0.01-42.14L117.24,24.77z"/>
		<path class="st1" d="M203.13,152.76c-2.16,0-4.06-0.72-5.41-2.05c-1.35-1.33-2.03-3.28-2.03-5.64l0.09-50.55
			c-0.03-9.74-3.23-18.15-9.18-24.1c-6.62-6.56-16.25-9.95-27.84-9.95c-19.69,0-37.65,11.48-37.68,24.1
			c0.2,3.49,1.49,6.46,3.61,8.41c1.9,1.85,4.55,2.77,7.52,2.77c6.26,0,11.05-5.02,10.7-11.38c0.48-5.03-3.32-8.61-7.12-9.84
			l-1.68-0.51l1.34-1.03c6.86-4.82,15-5.54,19.21-5.54c8.1,0,14.78,2.46,19.49,7.18c4.73,4.82,7.29,11.79,7.19,20.1l0.16,25.33
			l-1.68-2.77c-5.18-8.82-15.25-13.74-28.37-13.74c-20.2,0-36.08,13.02-36.18,29.53c0.03,7.38,2.97,14.05,8.37,19.48
			c6.85,6.77,17.02,10.56,27.99,10.56c12.51,0,23.38-5.84,29.08-15.69l0.89-1.54l6.05,15.28h24.81l0.39-8.41L203.13,152.76z
			 M181.31,133.08c0.64,12-10.26,21.02-25.23,21.02c-7.69,0-14.47-2.46-19.28-7.08c-3.92-3.79-6.19-8.61-6.35-14.05
			c0.2-11.79,11.29-21.02,25.24-21.02c8.2,0,15.31,2.67,20.13,7.38C179.51,123.03,181.37,127.85,181.31,133.08z"/>
		<path class="st1" d="M291.29,134.22c0.02,17.84-13.89,28.81-36.45,28.81c-13.33,0-24.53-3.79-31.5-10.77
			c-4.37-4.31-6.68-9.54-6.65-15.07c0-7.08,3.92-11.49,10.07-11.49c2.87,0,5.41,0.92,7.21,2.67c1.68,1.64,2.51,4.1,2.55,6.87
			c0,5.84-3.59,9.33-9.74,9.43l-1.63,0.1l1.14,1.33c5.38,6.46,15.46,10.25,26.74,10.25c15.59,0,25.41-7.28,25.31-18.97
			c0-14.05-13.47-18.05-27.79-22.35c-15.68-4.61-31.89-9.43-31.87-27.89c-0.02-16.61,13.37-26.56,35.72-26.56
			c12.71,0,23.06,3.38,29.23,9.43c3.6,3.69,5.52,8,5.51,12.61c-0.02,6.77-4.23,11.48-10.27,11.48c-2.77,0-5.21-0.92-6.91-2.77
			c-1.68-1.64-2.6-3.9-2.61-6.36c0-4.72,3.38-8.31,8.53-9.13l1.52-0.2l-1.02-1.13c-4.31-4.72-11.71-7.28-21.55-7.28
			c-15.38,0-24.97,6.46-24.98,16.82c0.03,12.1,12.68,16,26.16,20.1C274.44,109.2,291.3,114.33,291.29,134.22z"/>
		<path class="st1" d="M325.87,138.41c-0.03,4.41,1.56,8.41,4.58,11.28c2.93,2.97,6.96,4.61,11.48,4.61
			c7.69,0,14.39-5.43,16.46-13.43l5.82,2.05c-2.68,11.59-13.33,19.89-25.74,19.89c-7.79,0-14.79-2.67-19.74-7.69
			c-4.39-4.41-6.84-10.25-6.88-16.51l0.07-68.5l-17.23,0l0.1-8.31h0.72c14.67,0,18.2-5.33,26.4-20.61l3.92,0.31l0.03,20.3l34.04,0
			l0.01,8.31l-34.04,0L325.87,138.41z"/>
		<path class="st1" d="M424.86,152.46l0.02,8.41l-50.65,0l13.84-11.79c2.38-2.05,3.66-5.03,3.69-8.2l0.09-62.34
			c0.01-2.26-0.56-4.1-1.8-5.33c-1.34-1.23-3.14-1.85-5.29-1.85l-12,0l-0.03-8.51l33.14-6.87l-0.09,89.31
			c-0.01,2.26,0.67,4.1,1.9,5.33c1.23,1.23,3.03,1.85,5.29,1.85L424.86,152.46z"/>
		<path class="st1" d="M546.47,152.76l0.22,8.41l-45.53,0l14.14-15.38l0.04-52.4c0.1-5.84-2.11-11.28-6.05-15.18
			c-4.27-4.31-10.32-6.66-17.09-6.66c-13.54,0-28,9.33-29.75,30.35l0.08,43.17c0,2.36,0.68,4.31,2.03,5.64
			c1.35,1.33,3.15,2.05,5.41,2.05h7.79l0.22,8.41l-44.71,0l12.39-12c1.77-2.05,2.86-4.82,3.1-7.9l0.04-64.09
			c0.02-2.15-0.65-3.9-1.78-5.13c-1.34-1.23-3.13-1.85-5.59-1.85l-9.74,0l0.21-9.02l30.82-6.36l-0.08,26.87l1.59,0.62
			c7.36-13.13,19.47-21.23,32.24-21.84h1.13c7.89,0,15.44,3.08,21.28,8.82c6.4,6.36,10.15,15.28,10.35,24.61l-0.04,51.17
			c0.03,1.54,0.09,4.51,1.88,6.25c0.9,0.92,2.08,1.44,3.51,1.44H546.47z"/>
		
			<ellipse transform="matrix(0.7071 -0.7071 0.7071 0.7071 92.3906 288.2053)" class="st1" cx="394.09" cy="32.58" rx="11.66" ry="11.66"/>
		<path class="st1" d="M610.92,142.67h-31.7c-7.33,0-12.52-3.86-12.52-9.46c0-4.93,3.86-9.06,10.26-10.66
			c5.59,2.13,11.99,3.33,18.91,3.33c23.98,0,40.76-13.45,40.76-32.77c0-8.26-3.33-15.72-9.06-22.25c-0.13-0.13-0.26-0.27-0.26-0.27
			c-0.8-0.8-1.6-1.47-2.53-2.13c0.13,0,0.13-0.13,0.27-0.13c-0.13-0.13-0.4-0.4-0.53-0.53c9.46-4.66,15.59-12.79,15.59-20.78
			c0-6.79-4.53-11.99-10.79-11.99s-10.92,4.4-10.92,10.12c0,4.4,2.4,9.19,8.53,11.06c0.27,0.13,0.53,0.13,0.8,0.27
			c-1.47,3.86-4,7.06-8.66,9.46c-6.39-3.33-14.12-5.06-23.18-5.06c-23.58,0-40.23,13.32-40.23,32.24c0,10.79,5.2,19.98,14.39,25.84
			l1.33,0.93l-1.47,0.4c-8.79,2.93-13.59,8.39-13.59,15.32c0,7.06,4.66,12.79,13.05,15.72l2.4,0.93l-2.53,0.53
			c-12.12,2.66-19.31,9.99-19.31,19.71c0,15.05,18.78,25.58,45.56,25.58c27.04,0,45.83-12.79,45.83-31.04
			C641.3,153.19,628.24,142.67,610.92,142.67z M595.87,67.67c15.19,0,24.51,9.86,24.51,25.71s-9.32,25.58-24.51,25.58
			c-14.78,0-23.98-9.72-23.98-25.58S581.08,67.67,595.87,67.67z M596.14,188.89c-19.98,0-32.77-7.59-32.77-19.32
			c0-7.46,5.33-15.45,17.05-15.45h30.5c10.26,0,17.98,6.13,17.98,14.25C628.9,180.23,615.18,188.89,596.14,188.89z"/>
		<path class="st1" d="M774.25,58.2h-10c-1.61-17.41-1.61-23.76-19.61-23.76h-19.4v109.84c0,4.01,2.2,6.21,6.21,6.21h20.8v10h-71.03
			v-10h20.8c4.01,0,6.21-2.2,6.21-6.21V34.44h-19.4c-18.02,0-18.02,6.35-19.61,23.76h-10V24.43h115.05V58.2z"/>
		<path class="st1" d="M859.77,150.48v10h-26.6l-5.21-13.41c-5.6,9.41-16.6,15.41-29.6,15.41c-21.02,0-37.01-13.01-37.01-30.42
			c0-17.01,16-30.01,37.01-30.01c12.59,0,23,4.8,28.8,13.6V93.86c0-15.81-10-25.81-26-25.81c-3.81,0-11.81,0.4-18.41,5.21
			c4.4,1.2,8,5.4,8,10.8c0,6.4-5,11.61-12.01,11.61c-6.79,0-11.4-5-11.4-11.8c0-13.01,17.2-24.81,37.81-24.81
			c23.21,0,37.62,13.4,37.62,34.81v50.41c0,4.01,2.2,6.21,6.21,6.21H859.77z M827.16,131.87c0-12.01-11-20.21-24.6-20.21
			c-13.81,0-24.21,8.81-24.21,20.4c0,11.4,10.39,20.01,24.21,20.01C816.16,152.07,827.16,143.87,827.16,131.87z"/>
		<path class="st1" d="M968.8,110.66c0,31.41-20.22,51.82-46.02,51.82c-13.41,0-29.01-5.21-38.01-20.41l-8.6,18.41h-5.6V40.63
			c0-4-2.2-6.2-6.21-6.2h-12.8v-10h34.62v55.62c8.19-15.4,23-21.01,36.61-21.01C948.58,59.04,968.8,80.25,968.8,110.66z
			 M951.79,110.66c0-25.61-14.21-41.22-32.42-41.22c-21,0-33.2,16.01-33.2,41.22c0,26.21,12.2,41.41,33.2,41.41
			C937.59,152.07,951.79,137.27,951.79,110.66z"/>
		<path class="st1" d="M1022.41,150.48v10H968.8v-10h12.8c3.99,0,6.19-2.2,6.19-6.21V40.63c0-4-2.2-6.2-6.19-6.2h-12.8v-10h34.6
			v119.84c0,4.01,2.2,6.21,6.21,6.21H1022.41z"/>
		<path class="st1" d="M1072.84,151.88c17.01,0,28.41-10.4,32.21-27.01l9.42,1.8c-4.41,21.61-20.82,35.82-44.02,35.82
			c-28.82,0-48.03-22.01-48.03-51.02c0-29.81,20.41-52.42,48.22-52.42c26.6,0,44.21,20.8,44.21,52.22v2.2h-75.43
			C1040.43,135.87,1051.84,151.88,1072.84,151.88z M1039.62,104.86h58.03c-1.4-22.61-9.2-36.61-26.6-36.61
			C1052.83,68.25,1041.43,83.65,1039.62,104.86z"/>
		<circle class="st1" cx="1133.15" cy="150.86" r="11.85"/>
	</g>
</g>
<g id="Guides" class="st2">
</g>
</svg>
